<svg id="Camada_1" data-name="Camada 1" xmlns="http://www.w3.org/2000/svg" viewBox="0 0 258.23 212.1"><defs><style>.cls-1{fill:#f49823;}</style></defs><path class="cls-1" d="M209.55,386.78c4.24,1.78,8,3.38,11.79,4.94l133.14,54.8c.64.26,1.3.47,1.95.7q24.51,10.14,49,20.27,29.54,12.19,59.08,24.33c1,.4,1.9,1.08,3.07.67q-16.53-37.62-33-75.19c-4.27-9.73-8.48-19.49-12.8-29.2a3.31,3.31,0,0,1,.22-3c15.22-34.73,30.41-69.48,45.77-104.59-1,.32-1.72.52-2.42.81l-107.7,44.39c-.42.18-.82.41-1.24.62q-18,7.37-36.08,14.75-41.5,17.09-83,34.2Z" transform="translate(-209.55 -280.52)"/></svg>