<svg id="Camada_1" data-name="Camada 1" xmlns="http://www.w3.org/2000/svg" viewBox="0 0 195.02 208.6"><defs><style>.cls-1{fill:#fa991d;}.cls-2{fill:#022539;}</style></defs><path class="cls-1" d="M340.16,89.54c.73.67,1.72.62,2.58,1,4.13,1.64,7.07,4.52,7.7,8.92,1.89,13.31.22,26.07-7,37.68-2.77,4.45-6.66,7.65-12,8.5a14,14,0,0,1-13.21-4.77c-5.12-5.66-7.24-12.59-7.77-20-.6-8.35,1.31-16.18,6.55-22.85,4.36-5.54,10.3-8.32,17.33-8.74.31,0,.68.15.89-.25Z" transform="translate(-241.87 -89)"/><path class="cls-1" d="M387,244.18c-11.49-27.06-25.74-52.73-39.64-78.58-.58-1.06-1.21-1.15-2.29-.85-23.07,6.37-45.42,14.58-66.18,26.65-9.77,5.69-18.93,12.23-26.31,20.92-10.71,12.61-14.12,26.47-6.79,42,3,6.37,6.79,12.42,12.23,16.8,7.71,6.19,16.86,8.52,26.73,7.37,10.46-1.22,19-6.4,26.63-13.34,1.78-1.6,1.74-1.62,2.58.58,3.06,8.11,7.07,15.7,13.13,22,7.74,8.09,16.95,11.8,28.12,8.8a61.16,61.16,0,0,0,22.12-10.87,31.38,31.38,0,0,0,12.48-22.63A37.31,37.31,0,0,0,387,244.18Zm-25.78,27a50.23,50.23,0,0,1-15.14,6.28c-9,1.91-16.32-1.54-22.35-8.13a41.29,41.29,0,0,1-8.58-14.9c-1.66,1.31-3.15,2.56-4.72,3.71-6.9,5.17-14.51,8.32-23.27,6.81a31.63,31.63,0,0,1-21-13.43c-3.84-5.45-6.88-11.21-7.47-18-.71-8,2-14.9,6.67-21.19,5.71-7.68,13.13-13.46,21.15-18.5,17.31-10.82,36.15-18.11,55.58-24,1.59-.47,1.87.22,2.43,1.38,8.67,18.37,17.36,36.76,25.08,55.56,1.46,3.51,2.89,7,4,10.65C377.93,251.12,374.14,263.5,361.2,271.15Z" transform="translate(-241.87 -89)"/><path class="cls-2" d="M361.2,271.15a50.23,50.23,0,0,1-15.14,6.28c-9,1.91-16.32-1.54-22.35-8.13a41.29,41.29,0,0,1-8.58-14.9c-1.66,1.31-3.15,2.56-4.72,3.71-6.9,5.17-14.51,8.32-23.27,6.81a31.63,31.63,0,0,1-21-13.43c-3.84-5.45-6.88-11.21-7.47-18-.71-8,2-14.9,6.67-21.19,5.71-7.68,13.13-13.46,21.15-18.5,17.31-10.82,36.15-18.11,55.58-24,1.59-.47,1.87.22,2.43,1.38,8.67,18.37,17.36,36.76,25.08,55.56,1.46,3.51,2.89,7,4,10.65C377.93,251.12,374.14,263.5,361.2,271.15Z" transform="translate(-241.87 -89)"/><path class="cls-1" d="M419.9,132a49.58,49.58,0,0,1-6.18,19.39c-4.42,7.77-11.17,11.65-20,12.28a22.25,22.25,0,0,1-9.85-1.18,16,16,0,0,1-9.6-10.06c-5.33-15.59-1.59-27.68,11.82-37.67a37.06,37.06,0,0,1,18.27-7.56,17.91,17.91,0,0,1,5.32.12c4.21.81,6.87,3.37,8.41,7.28C420.34,120.22,420.54,126.06,419.9,132Z" transform="translate(-241.87 -89)"/><path class="cls-1" d="M411.89,217.18a38.86,38.86,0,0,1-14.74-4.63c-7.86-4.57-8.22-15.16-3-20.94,5.54-6.1,19.9-11.61,29.63-7a20.71,20.71,0,0,1,8.49,7.29,26.56,26.56,0,0,1,4.33,10c1,5.3-1,9.54-5.68,12.21s-9.75,3.26-15,3.26C414.54,217.38,413.09,217.24,411.89,217.18Z" transform="translate(-241.87 -89)"/><path class="cls-1" d="M252.47,133c.77-6.76,5.16-11.52,10.68-11.94a13.57,13.57,0,0,1,9,2.52c9.56,6.81,15.64,15.85,16.85,27.72.59,5.74-2.53,9.93-8.1,11.39a29.48,29.48,0,0,1-9.9,1,14.32,14.32,0,0,1-11.55-7.21c-3-4.8-4.45-10.16-5.77-15.57C253,138.14,252.08,135.36,252.47,133Z" transform="translate(-241.87 -89)"/></svg>