<svg id="Camada_1" data-name="Camada 1" xmlns="http://www.w3.org/2000/svg" viewBox="0 0 123.13 49.64"><defs><style>.cls-1{fill:#fa991d;}.cls-2{fill:#d2fbfc;}</style></defs><path class="cls-1" d="M137.48,53.56h9.36v4.25H143v4h3.41v4H143v8.94h-5.53Z" transform="translate(-85.87 -52.76)"/><path class="cls-1" d="M148.19,53.56h3.91a30.1,30.1,0,0,1,5.3.3,3.61,3.61,0,0,1,2.26,1.54,7,7,0,0,1,.88,4,6.2,6.2,0,0,1-.62,3.34,3.26,3.26,0,0,1-2.43,1,4.16,4.16,0,0,1,2.21,1.09,3.26,3.26,0,0,1,.7,1.25,20,20,0,0,1,.14,3.15v5.61H155.4V67.76a4.91,4.91,0,0,0-.27-2.12c-.18-.27-.65-.4-1.41-.4v9.59h-5.53Zm5.53,3.64v4.73a2.45,2.45,0,0,0,1.31-.26c.24-.17.37-.73.37-1.66V58.84a1.78,1.78,0,0,0-.36-1.33A2.06,2.06,0,0,0,153.72,57.2Z" transform="translate(-85.87 -52.76)"/><path class="cls-1" d="M168.21,53.56V74.83h-5.53V53.56Z" transform="translate(-85.87 -52.76)"/><path class="cls-1" d="M170.43,53.56h9.23v4.25H176v4h3.46v4H176v4.68H180v4.26h-9.59Z" transform="translate(-85.87 -52.76)"/><path class="cls-1" d="M194,53.56V74.83h-4.85l-2.88-9.67v9.67h-4.63V53.56h4.63l3.1,9.57V53.56Z" transform="translate(-85.87 -52.76)"/><path class="cls-1" d="M196.19,53.56h4.14a26.3,26.3,0,0,1,5.42.36,4.2,4.2,0,0,1,2.15,1.21,3.92,3.92,0,0,1,.92,1.87,29,29,0,0,1,.18,4.06v7.45a17.24,17.24,0,0,1-.27,3.83,2.86,2.86,0,0,1-.94,1.51,3.93,3.93,0,0,1-1.65.76,14.55,14.55,0,0,1-3,.22h-7Zm5.53,3.64v14q1.2,0,1.47-.48a6.86,6.86,0,0,0,.28-2.61V59.84a11.47,11.47,0,0,0-.09-1.86.91.91,0,0,0-.42-.59A2.73,2.73,0,0,0,201.72,57.2Z" transform="translate(-85.87 -52.76)"/><path class="cls-2" d="M153.71,81.12V102.4h-4.83V88L147,102.4h-3.43l-2-14v14h-4.83V81.12h7.15c.22,1.28.43,2.79.66,4.53l.79,5.41,1.27-9.94Z" transform="translate(-85.87 -52.76)"/><path class="cls-2" d="M155.94,81.12h9.22v4.26h-3.69v4h3.45v4h-3.45v4.68h4.06v4.26h-9.59Z" transform="translate(-85.87 -52.76)"/><path class="cls-2" d="M177.15,87.59h-5.31a13.91,13.91,0,0,1,.48-4.09,4.47,4.47,0,0,1,1.94-2.25,6.89,6.89,0,0,1,3.8-1,7.53,7.53,0,0,1,2.92.53,4.89,4.89,0,0,1,2,1.46,6.53,6.53,0,0,1,1.08,2,12.38,12.38,0,0,1,.34,3.42v2.6a9.94,9.94,0,0,1-.33,2.85,3.73,3.73,0,0,1-1.43,1.9,4.27,4.27,0,0,1-2.59.81,3.16,3.16,0,0,1-2.88-1.51v2.29h-5V90.81H177c0,.81.31,1.21.87,1.21a.79.79,0,0,0,.84-.53,11.9,11.9,0,0,0,.17-2.61V85.34a4.9,4.9,0,0,0-.16-1.57.65.65,0,0,0-.65-.4.75.75,0,0,0-.78.53,10.44,10.44,0,0,0-.17,2.4Zm0,10.16V102h-5V97.75Z" transform="translate(-85.87 -52.76)"/><path class="cls-1" d="M106.62,52.87c.16.14.37.13.55.2A2.37,2.37,0,0,1,108.79,55a11.51,11.51,0,0,1-1.48,8,3.62,3.62,0,0,1-2.54,1.79,3,3,0,0,1-2.79-1,7.46,7.46,0,0,1-.25-9,4.82,4.82,0,0,1,3.66-1.85c.06,0,.14,0,.18-.05Z" transform="translate(-85.87 -52.76)"/><path class="cls-1" d="M117.11,89.52a6.66,6.66,0,0,1-2.64,4.77,12.84,12.84,0,0,1-4.67,2.3,5.73,5.73,0,0,1-5.94-1.86,13.35,13.35,0,0,1-2.77-4.65c-.18-.47-.17-.46-.55-.12a10,10,0,0,1-5.62,2.81,7.31,7.31,0,0,1-5.64-1.55,9.85,9.85,0,0,1-2.59-3.55c-1.54-3.28-.83-6.21,1.44-8.87a20.81,20.81,0,0,1,5.55-4.42,58.66,58.66,0,0,1,14-5.63c.23-.06.36,0,.48.18,2.93,5.46,5.94,10.88,8.37,16.6A8,8,0,0,1,117.11,89.52Zm-15.77-1.84a8.6,8.6,0,0,0,1.81,3.15,4.79,4.79,0,0,0,4.72,1.72,10.65,10.65,0,0,0,3.2-1.33,5.7,5.7,0,0,0,2.62-7.12c-.24-.77-.55-1.51-.85-2.25-1.63-4-3.47-7.85-5.3-11.73-.11-.25-.18-.4-.51-.29A47.86,47.86,0,0,0,95.3,74.9a15.77,15.77,0,0,0-4.47,3.9,6.39,6.39,0,0,0-1.41,4.48A7.63,7.63,0,0,0,91,87.07a6.67,6.67,0,0,0,4.43,2.84,6.24,6.24,0,0,0,4.91-1.44C100.67,88.22,101,88,101.34,87.68Z" transform="translate(-85.87 -52.76)"/><path class="cls-1" d="M123.46,61.83a10.59,10.59,0,0,1-1.3,4.1,5,5,0,0,1-4.22,2.59,4.74,4.74,0,0,1-2.08-.25,3.35,3.35,0,0,1-2-2.12c-1.13-3.29-.34-5.85,2.49-8a7.81,7.81,0,0,1,3.86-1.59,3.82,3.82,0,0,1,1.12,0,2.3,2.3,0,0,1,1.78,1.54A7.51,7.51,0,0,1,123.46,61.83Z" transform="translate(-85.87 -52.76)"/><path class="cls-1" d="M121.77,79.83a8.4,8.4,0,0,1-3.11-1,2.91,2.91,0,0,1-.63-4.42c1.17-1.29,4.2-2.46,6.26-1.49a4.39,4.39,0,0,1,1.79,1.54A5.73,5.73,0,0,1,127,76.6a2.29,2.29,0,0,1-1.2,2.58,6.34,6.34,0,0,1-3.17.69C122.33,79.87,122,79.84,121.77,79.83Z" transform="translate(-85.87 -52.76)"/><path class="cls-1" d="M88.11,62.05a2.62,2.62,0,0,1,2.25-2.52,2.79,2.79,0,0,1,1.9.53,8,8,0,0,1,3.56,5.85,2.12,2.12,0,0,1-1.71,2.41,6.39,6.39,0,0,1-2.09.22A3,3,0,0,1,89.58,67a11,11,0,0,1-1.22-3.28A4.76,4.76,0,0,1,88.11,62.05Z" transform="translate(-85.87 -52.76)"/></svg>