<svg id="Camada_1" data-name="Camada 1" xmlns="http://www.w3.org/2000/svg" viewBox="0 0 439.7 101.29"><defs><style>.cls-1{fill:#fa991d;}.cls-2{fill:#d2fbfc;}</style></defs><path class="cls-1" d="M372.9,187.78h23.79v10.81H387v10.25h8.68v10.27H387V241.8H372.9Z" transform="translate(-259.3 -144.37)"/><path class="cls-1" d="M400.1,187.78H410q9.94,0,13.46.77a9.26,9.26,0,0,1,5.74,3.92q2.22,3.15,2.22,10.06c0,4.2-.52,7-1.57,8.47s-3.1,2.32-6.17,2.61q4.17,1,5.6,2.77a8.18,8.18,0,0,1,1.79,3.18,50.82,50.82,0,0,1,.35,8V241.8h-13v-18c0-2.89-.22-4.68-.68-5.37s-1.65-1-3.59-1V241.8h-14Zm14,9.24v12a6.21,6.21,0,0,0,3.32-.65c.64-.44,1-1.84,1-4.23v-3c0-1.72-.3-2.84-.91-3.37A5.2,5.2,0,0,0,414.14,197Z" transform="translate(-259.3 -144.37)"/><path class="cls-1" d="M451,187.78v54H436.9v-54Z" transform="translate(-259.3 -144.37)"/><path class="cls-1" d="M456.58,187.78H480v10.81h-9.38v10.25h8.78v10.27h-8.78V231h10.31V241.8H456.58Z" transform="translate(-259.3 -144.37)"/><path class="cls-1" d="M516.34,187.78v54H504l-7.31-24.56V241.8H485v-54h11.74l7.88,24.33V187.78Z" transform="translate(-259.3 -144.37)"/><path class="cls-1" d="M522,187.78h10.51q10.17,0,13.76.94a10.53,10.53,0,0,1,5.46,3.07,9.7,9.7,0,0,1,2.33,4.75,70.45,70.45,0,0,1,.47,10.29v18.92q0,7.27-.68,9.73a7.3,7.3,0,0,1-2.39,3.83,9.83,9.83,0,0,1-4.2,1.94,37.77,37.77,0,0,1-7.54.55H522ZM536,197v35.54c2,0,3.27-.41,3.73-1.22s.7-3,.7-6.62v-21a27.74,27.74,0,0,0-.23-4.7,2.23,2.23,0,0,0-1.07-1.52A6.91,6.91,0,0,0,536,197Z" transform="translate(-259.3 -144.37)"/><path class="cls-2" d="M621.14,188.78v54H608.86l0-36.47L604,242.8h-8.7l-5.16-35.63,0,35.63H577.8v-54H596q.81,4.88,1.67,11.49l2,13.74,3.23-25.23Z" transform="translate(-259.3 -144.37)"/><path class="cls-2" d="M626.78,188.78H650.2v10.81h-9.38v10.25h8.78v10.27h-8.78V232h10.31V242.8H626.78Z" transform="translate(-259.3 -144.37)"/><path class="cls-2" d="M680.65,205.2H667.17q.06-7.11,1.2-10.38a11.47,11.47,0,0,1,4.92-5.72,17.44,17.44,0,0,1,9.66-2.45,19,19,0,0,1,7.41,1.33,12.37,12.37,0,0,1,5,3.72,16.24,16.24,0,0,1,2.73,5.16,31.39,31.39,0,0,1,.87,8.67v6.61a25.79,25.79,0,0,1-.83,7.24,9.42,9.42,0,0,1-3.64,4.8,10.76,10.76,0,0,1-6.57,2.07,8,8,0,0,1-7.31-3.83v5.8H668.07V213.37h12.28c0,2,.78,3.07,2.2,3.07a2,2,0,0,0,2.12-1.35,28.29,28.29,0,0,0,.45-6.62v-9a12.23,12.23,0,0,0-.42-4,1.61,1.61,0,0,0-1.65-1,1.86,1.86,0,0,0-2,1.35,25.72,25.72,0,0,0-.43,6.09Zm0,25.79V241.8H668.07V231Z" transform="translate(-259.3 -144.37)"/><path class="cls-2" d="M307,144.63c.35.33.84.31,1.25.47a5.43,5.43,0,0,1,3.74,4.33c.92,6.46.11,12.66-3.41,18.3a8.32,8.32,0,0,1-5.84,4.13,6.79,6.79,0,0,1-6.41-2.32,17.16,17.16,0,0,1-.59-20.8,11.1,11.1,0,0,1,8.41-4.25c.15,0,.33.08.43-.12Z" transform="translate(-259.3 -144.37)"/><path class="cls-2" d="M331.13,228.9a15.22,15.22,0,0,1-6.06,11,29.47,29.47,0,0,1-10.74,5.28c-5.42,1.46-9.9-.34-13.66-4.27a30.82,30.82,0,0,1-6.38-10.7c-.4-1.07-.39-1.06-1.24-.28-3.71,3.37-7.85,5.89-12.93,6.48a16.92,16.92,0,0,1-13-3.58,22.55,22.55,0,0,1-5.95-8.16c-3.55-7.54-1.9-14.27,3.3-20.39a48,48,0,0,1,12.78-10.16c10.08-5.86,20.93-9.85,32.13-12.95.53-.14.83-.1,1.11.42,6.75,12.55,13.67,25,19.25,38.16A18.16,18.16,0,0,1,331.13,228.9Zm-36.26-4.21a20.09,20.09,0,0,0,4.17,7.23c2.93,3.2,6.48,4.87,10.85,4a24.42,24.42,0,0,0,7.36-3.05c6.28-3.72,8.12-9.73,6-16.38-.55-1.76-1.25-3.47-1.95-5.17-3.75-9.14-8-18.06-12.18-27-.27-.57-.41-.9-1.17-.67-9.44,2.87-18.59,6.41-27,11.66a36.67,36.67,0,0,0-10.28,9,14.71,14.71,0,0,0-3.24,10.29,17.78,17.78,0,0,0,3.64,8.72,15.3,15.3,0,0,0,10.18,6.52c4.26.74,8-.79,11.31-3.3C293.35,225.93,294.07,225.32,294.87,224.69Z" transform="translate(-259.3 -144.37)"/><path class="cls-2" d="M345.75,165.24a24.1,24.1,0,0,1-3,9.42,11.39,11.39,0,0,1-9.7,6,10.78,10.78,0,0,1-4.78-.57,7.77,7.77,0,0,1-4.66-4.89c-2.59-7.57-.77-13.44,5.74-18.29a18,18,0,0,1,8.87-3.67,8.92,8.92,0,0,1,2.58.06,5.25,5.25,0,0,1,4.09,3.54A17.56,17.56,0,0,1,345.75,165.24Z" transform="translate(-259.3 -144.37)"/><path class="cls-2" d="M341.86,206.62a19.08,19.08,0,0,1-7.16-2.26c-3.81-2.21-4-7.35-1.44-10.16,2.69-3,9.67-5.64,14.39-3.42a10.11,10.11,0,0,1,4.12,3.54,12.89,12.89,0,0,1,2.1,4.87,5.25,5.25,0,0,1-2.76,5.93,14.2,14.2,0,0,1-7.26,1.59C343.15,206.71,342.44,206.64,341.86,206.62Z" transform="translate(-259.3 -144.37)"/><path class="cls-2" d="M264.45,165.74c.37-3.28,2.5-5.59,5.18-5.8a6.62,6.62,0,0,1,4.37,1.22c4.65,3.31,7.6,7.7,8.19,13.46a4.91,4.91,0,0,1-3.93,5.54,14.74,14.74,0,0,1-4.81.5,7,7,0,0,1-5.61-3.51,25.24,25.24,0,0,1-2.8-7.56A10.37,10.37,0,0,1,264.45,165.74Z" transform="translate(-259.3 -144.37)"/></svg>